<svg width="1388" height="1211" viewBox="0 0 1388 1211" fill="none" xmlns="http://www.w3.org/2000/svg">
<path d="M1073.07 552.441C1124.98 417.225 1125.55 290.066 1030.78 173.78C1034.33 183.527 1037.76 193.273 1041.37 202.964C1067.16 272.093 1077.8 342.011 1058.88 415.253C1037.2 499.031 980.666 542.469 899.356 558.301C861.686 565.625 823.565 569.907 777.843 557.793C790.681 554.075 796.819 551.934 803.125 550.526C902.284 528.328 967.658 469.79 988.549 369.336C1008.43 274.009 973.909 194.626 900.989 133.891C774.971 28.9296 616.858 50.9022 520.064 184.034C372.198 387.365 402.661 633.402 595.742 795.154C797.213 963.892 1060.29 978.766 1279.44 833.747C1319.47 807.267 1352.47 772.618 1388 737.18C1364.41 845.804 1242.56 1015.67 1082.13 1108.69C935.619 1193.65 776.548 1225.42 610.495 1205.03C153.271 1148.74 -106.085 742.138 -58.3917 380.717C-38.177 499.989 3.66003 609.683 81.6471 703.545C60.7004 642.585 39.4721 581.738 26.6338 518.693C-10.586 336.433 -3.43481 159.864 100.51 -2.2265C128.552 -45.9464 166.335 -81.4406 206.652 -113.892C225.515 -129.104 244.941 -143.584 266.113 -157.725C117.628 51.1275 76.8046 272.206 190.153 510.637C186.887 478.072 182.833 445.508 180.581 412.887C169.657 255.755 189.365 104.82 280.246 -28.7063C378.279 -172.768 518.036 -247.982 688.369 -276.941C902.397 -313.336 1180.95 -147.809 1259.28 40.8737C1298.64 135.75 1321.16 232.035 1286.31 333.673C1283.94 340.546 1283.49 348.603 1272.29 356.209C1261.14 203.978 1191.71 89.8895 1058.09 17.4362C1079.66 51.9163 1104.99 83.8047 1125.6 118.961C1201.9 248.994 1194.36 419.535 1106.4 529.905C1098.46 539.821 1091.71 551.821 1073.07 552.385V552.441Z" fill="#3A99D1"/>
</svg>
